<svg xmlns="http://www.w3.org/2000/svg" width="64" height="64" viewBox="0 0 64 64" role="img" aria-label="Second Brain favicon">
  <rect x="4" y="4" width="56" height="56" rx="14" fill="#10B981" />
  <g fill="none" stroke="#FFFFFF" stroke-width="3.5" stroke-linecap="round" stroke-linejoin="round">
    <path d="M31 18c-4.8 0-8.5 3.5-8.5 8v2.2a6.8 6.8 0 0 0-3.5 6.1c0 2.8 1.8 5.3 4.4 6.3-.1.5-.2 1-.2 1.5 0 4.2 3.5 7.6 7.8 7.6" />
    <path d="M33 18c4.8 0 8.5 3.5 8.5 8v2.2a6.8 6.8 0 0 1 3.5 6.1c0 2.8-1.8 5.3-4.4 6.3.1.5.2 1 .2 1.5 0 4.2-3.5 7.6-7.8 7.6" />
    <path d="M31.5 21.5v25" />
    <path d="M25 27.5h3.8" />
    <path d="M24 34.5h4.8" />
    <path d="M26 41.5h2.8" />
    <path d="M34.2 27.5H39" />
    <path d="M34.2 34.5H40" />
    <path d="M34.2 41.5H38" />
  </g>
</svg>
